<svg width="0" height="0" class="hidden">
  <symbol fill="none" xmlns="http://www.w3.org/2000/svg" viewBox="0 0 22 30" id="icon-fire">
    <path d="M20.5397 15.5556C20.2739 14.9601 19.9072 14.3738 19.371 13.6965C18.0189 11.9965 17.6064 8.20557 17.6018 8.1692C17.5835 7.98739 17.4551 7.83739 17.2855 7.78284C17.1114 7.7283 16.9235 7.7783 16.7997 7.91466C15.1864 9.7192 15.8647 12.5056 16.2314 13.6192C16.3322 13.9238 16.4422 14.2828 16.5201 14.6465C17.1159 17.5874 15.9655 18.9192 15.6951 19.1874C15.4338 19.2601 15.2551 19.2238 15.0901 19.0465C14.5217 18.4238 14.3338 16.3828 14.5997 13.7238C14.6547 13.1828 14.6409 12.6965 14.563 12.2419C14.0024 8.97361 11.9467 6.87716 11.4234 6.14193C9.98424 4.01466 9.83758 0.47375 9.83299 0.441932C9.82841 0.27375 9.73216 0.12375 9.58091 0.0510227C9.43424 -0.0217046 9.25549 -0.0126137 9.11799 0.0828409C6.71633 1.71466 6.92258 5.64648 7.25716 7.84193C7.33508 8.35102 7.48633 8.86921 7.74758 9.52375C8.67799 11.8647 7.56424 14.8874 7.55508 14.9147C7.54591 14.9419 7.53674 14.9647 7.53216 14.9919C7.39008 15.7374 7.15174 16.1828 6.88591 16.1828C6.85841 16.1828 6.83091 16.1783 6.79883 16.1692C6.47341 16.101 6.30383 15.7556 6.29924 15.4556C6.28091 11.5783 2.38966 10.2738 2.34841 10.2601C2.17424 10.2056 1.98174 10.2556 1.86258 10.3965C1.73883 10.5374 1.71591 10.7328 1.79841 10.8965C1.84424 10.9919 1.99091 11.4101 1.89008 12.8874C1.80299 14.2147 1.56008 15.5283 1.17049 16.7874C0.244659 19.8056 0.391326 22.6647 0.400492 22.801C1.11242 30.5423 12.2456 31.8987 18.853 27.5374C19.5772 27.0601 20.1684 26.5147 20.6038 25.9147C23.0422 22.551 21.6076 17.9828 20.5397 15.5556ZM3.60429 22.951C3.61804 23.201 3.42554 23.4147 3.17345 23.4283H3.14595C2.90304 23.4283 2.70137 23.2419 2.68762 23.001C2.64637 22.3374 2.65554 21.6419 2.70595 20.8874C2.72429 20.6374 2.94429 20.451 3.19637 20.4646C3.44845 20.4828 3.64095 20.701 3.62262 20.951C3.57216 21.6692 3.56304 22.3238 3.60429 22.951ZM3.82883 18.9238C3.80133 19.1556 3.60424 19.3238 3.37508 19.3238C3.35674 19.3238 3.33841 19.3238 3.31549 19.3192C3.06799 19.2874 2.88924 19.0647 2.91674 18.8147L3.13674 17.0601C3.16883 16.8147 3.39341 16.6374 3.65007 16.6647C3.90216 16.6965 4.08091 16.9237 4.04883 17.1737L3.82883 18.9238Z" fill="#FF6B09"></path>
    <path d="M17.4391 6.21861C17.1891 6.1802 17.0177 5.94851 17.0562 5.70061C17.0848 5.51592 17.2504 4.57047 17.6998 4.09506C17.8728 3.91174 18.1624 3.9022 18.3477 4.07442C18.5323 4.24597 18.5417 4.53365 18.3685 4.71697C18.1783 4.91829 18.0163 5.49442 17.9621 5.83915C17.9234 6.08442 17.6928 6.25656 17.4391 6.21861Z" fill="#FF6B09"></path>
    <path d="M0.729802 8.48269C0.642077 8.14464 0.424093 7.58714 0.214864 7.40514C0.0244267 7.23955 0.00540581 6.95237 0.172331 6.76373C0.338843 6.57464 0.628189 6.55532 0.819085 6.72155C1.31298 7.151 1.57103 8.07587 1.61782 8.25673C1.68048 8.49978 1.5328 8.747 1.28796 8.8096C1.03771 8.872 0.792181 8.72169 0.729802 8.48269Z" fill="#FF6B09"></path>
  </symbol>
  <symbol fill="none" xmlns="http://www.w3.org/2000/svg" viewBox="0 0 21 14" id="icon-menu">
    <path d="M0 1H20.5" stroke="black" stroke-width="2"></path>
    <path d="M0 7H20.5" stroke="black" stroke-width="2"></path>
    <path d="M0 13H20.5" stroke="black" stroke-width="2"></path>
  </symbol>
  <symbol xmlns="http://www.w3.org/2000/svg" viewBox="0 0 18 18" id="icon-close">
    <path d="M1 16.9995L16.9996 0.999959" stroke="white" stroke-width="2"></path>
    <path d="M17 16.9995L1.00045 0.999959" stroke="white" stroke-width="2"></path>
  </symbol>
  <symbol fill="none" xmlns="http://www.w3.org/2000/svg" viewBox="0 0 18 14" id="icon-check">
    <path d="M15.075 0.662248C14.4256 0.952775 13.8032 1.30752 13.2091 1.70317C12.0143 2.48928 10.922 3.42535 9.89741 4.42362C8.87329 5.42435 7.91983 6.49524 7.01829 7.60876C6.7928 7.88721 5.78328 9.12699 5.78328 9.12699L1.5849 2.8357L0 7.22893L5.67753 14C6.22885 12.8838 6.75944 11.782 7.27986 10.8246C7.40918 10.5812 7.5446 10.3521 7.67404 10.1194C7.67404 10.1194 8.34032 8.94816 8.51554 8.65312C9.21621 7.47307 9.97356 6.32359 10.8075 5.23162C11.6424 4.14165 12.5501 3.10108 13.579 2.18632C14.091 1.72593 14.636 1.30025 15.2199 0.929805C15.8026 0.558632 16.4217 0.233606 17.084 0C16.3951 0.13554 15.7229 0.370921 15.075 0.662248Z" fill="#FF6B09"></path>
  </symbol>
  <symbol fill="none" xmlns="http://www.w3.org/2000/svg" viewBox="0 0 30 30" id="icon-vk">
    <g clip-path="url(#clip0_1_2958)">
      <path d="M25.8193 17.3062C26.8144 18.2778 27.8647 19.1919 28.7573 20.2614C29.1516 20.7367 29.5248 21.2272 29.8104 21.7788C30.215 22.5629 29.8485 23.4257 29.1455 23.4725L24.775 23.4705C23.6477 23.5641 22.7485 23.1103 21.9924 22.3396C21.3873 21.7232 20.8269 21.0673 20.2451 20.4301C20.0065 20.1697 19.7569 19.9247 19.4586 19.731C18.862 19.3437 18.3441 19.4623 18.0032 20.0845C17.6559 20.7175 17.5771 21.4182 17.543 22.1236C17.4962 23.1527 17.1851 23.4233 16.1514 23.4704C13.9421 23.5746 11.8454 23.2404 9.89753 22.1259C8.18026 21.1434 6.84866 19.7563 5.68956 18.186C3.43294 15.1284 1.70472 11.7686 0.151512 8.31457C-0.198116 7.53639 0.0575866 7.11867 0.91622 7.10385C2.34198 7.07613 3.76757 7.07813 5.19503 7.10186C5.77452 7.11035 6.15813 7.4427 6.3819 7.99014C7.15329 9.88688 8.09718 11.6914 9.28194 13.3641C9.59747 13.8094 9.91921 14.2548 10.3773 14.5682C10.8841 14.9153 11.27 14.8003 11.5084 14.2356C11.6597 13.8776 11.726 13.492 11.7601 13.1087C11.8731 11.7895 11.888 10.4726 11.6899 9.15814C11.5682 8.33777 11.1061 7.80668 10.2875 7.65147C9.86982 7.57231 9.93198 7.41686 10.1342 7.17844C10.4855 6.76723 10.8159 6.51123 11.4746 6.51123H16.4139C17.1915 6.66469 17.3642 7.01402 17.4707 7.79643L17.4749 13.283C17.4664 13.5858 17.6262 14.4847 18.1717 14.6852C18.6084 14.8279 18.8962 14.4786 19.1582 14.2017C20.3408 12.9466 21.1849 11.4632 21.9389 9.92725C22.2735 9.25184 22.5613 8.55047 22.8401 7.84963C23.0467 7.32961 23.3709 7.07373 23.9567 7.08504L28.7105 7.08926C28.8515 7.08926 28.9941 7.09131 29.1306 7.11469C29.9317 7.25121 30.1512 7.5958 29.9038 8.37803C29.514 9.60527 28.7555 10.628 28.0138 11.6555C27.2211 12.7524 26.3732 13.8118 25.587 14.9153C24.8647 15.9231 24.922 16.431 25.8193 17.3062Z" fill="#436EAB"></path>
    </g>
    <defs>
      <clipPath id="clip0_1_2958">
        <rect width="30" height="30" fill="white"></rect>
      </clipPath>
    </defs>
  </symbol>
  <symbol version="1.0" xmlns="http://www.w3.org/2000/svg" preserveAspectRatio="xMidYMid meet" viewBox="0 0 512.000000 512.000000" id="icon-up">
    <g transform="translate(0.000000,512.000000) scale(0.100000,-0.100000)" stroke="none">
      <path d="M1912 2808 c-332 -332 -610 -616 -619 -632 -35 -66 20 -146 100 -146
41 0 42 1 604 562 l563 563 563 -563 c562 -561 563 -562 604 -562 80 0 135 80
100 146 -9 16 -287 300 -619 632 l-603 602 -45 0 -45 0 -603 -602z"></path>
    </g>
  </symbol>
  <symbol fill="none" xmlns="http://www.w3.org/2000/svg" viewBox="0 0 26 26" id="icon-inst">
    <path d="M0.428711 8.14875C0.512024 7.56037 0.5755 6.96863 0.681396 6.38453C1.28168 3.07612 3.6239 0.82514 6.9729 0.709783C11.0052 0.571234 15.0497 0.563909 19.0814 0.709173C22.7264 0.840399 25.3661 3.53937 25.48 7.18561C25.6011 11.0574 25.6011 14.9386 25.48 18.8104C25.3661 22.4566 22.7273 25.1553 19.0817 25.2868C15.05 25.4324 11.0046 25.436 6.97321 25.2847C3.32758 25.1476 0.807434 22.4426 0.563599 18.7908C0.542542 18.475 0.474792 18.1619 0.428711 17.8475C0.428711 14.6145 0.428711 11.3815 0.428711 8.14875ZM13.0032 23.1259C14.8483 23.1259 16.6952 23.1811 18.5378 23.113C21.4269 23.0059 23.204 21.2817 23.2714 18.3953C23.355 14.7988 23.355 11.1975 23.2714 7.60065C23.204 4.71491 21.4257 2.95038 18.5378 2.88904C14.8724 2.81153 11.2029 2.81214 7.53748 2.88904C4.67157 2.94916 2.88934 4.67798 2.81152 7.53199C2.71265 11.174 2.71265 14.8223 2.81152 18.4643C2.88934 21.318 4.67157 23.0068 7.53778 23.113C9.35724 23.1808 11.1813 23.1259 13.0032 23.1259Z" fill="white"></path>
    <path d="M12.9996 6.59326C9.46143 6.59326 6.59277 9.46161 6.59277 12.9998C6.59277 16.5383 9.46143 19.4067 12.9996 19.4067C16.5381 19.4067 19.4065 16.5383 19.4065 12.9998C19.4065 9.46161 16.5381 6.59326 12.9996 6.59326ZM12.9996 17.2009C10.6794 17.2009 8.79858 15.3201 8.79858 12.9998C8.79858 10.6796 10.6794 8.79877 12.9996 8.79877C15.3199 8.79877 17.2007 10.6796 17.2007 12.9998C17.2007 15.3201 15.3199 17.2009 12.9996 17.2009Z" fill="white"></path>
    <path d="M21.3052 6.30121C21.3052 7.14288 20.6229 7.82526 19.7812 7.82526C18.9395 7.82526 18.2568 7.14288 18.2568 6.30121C18.2568 5.45923 18.9395 4.77686 19.7812 4.77686C20.6229 4.77686 21.3052 5.45923 21.3052 6.30121Z" fill="white"></path>
  </symbol>
  <symbol id="icon-person" viewBox="0 0 32 32">
  <path d="M16 16c2.947 0 5.333-2.387 5.333-5.333s-2.387-5.333-5.333-5.333c-2.947 0-5.333 2.387-5.333 5.333s2.387 5.333 5.333 5.333zM16 18.667c-3.56 0-10.667 1.787-10.667 5.333v1.333c0 0.733 0.6 1.333 1.333 1.333h18.667c0.733 0 1.333-0.6 1.333-1.333v-1.333c0-3.547-7.107-5.333-10.667-5.333z"></path>
  </symbol>
  <symbol id="icon-tel" viewBox="0 0 32 32">
  <path d="M24.882 19.773l-3.268-0.373c-0.785-0.090-1.557 0.18-2.11 0.733l-2.367 2.367c-3.641-1.853-6.626-4.825-8.478-8.478l2.38-2.38c0.553-0.553 0.823-1.325 0.733-2.11l-0.373-3.242c-0.154-1.299-1.248-2.277-2.56-2.277h-2.226c-1.454 0-2.663 1.209-2.573 2.663 0.682 10.987 9.469 19.761 20.443 20.443 1.454 0.090 2.663-1.119 2.663-2.573v-2.226c0.013-1.299-0.965-2.393-2.264-2.547z"></path>
  </symbol>
  <symbol id="icon-closes" viewBox="0 0 32 32">
  <path d="M26.667 7.303l-1.97-1.97-7.808 7.808-7.808-7.808-1.97 1.97 7.808 7.808-7.808 7.808 1.97 1.97 7.808-7.808 7.808 7.808 1.97-1.97-7.808-7.808 7.808-7.808z"></path>
  </symbol>
</svg>